<?xml version="1.0" encoding="UTF-8" standalone="no"?>
<svg
   xmlns:dc="http://purl.org/dc/elements/1.1/"
   xmlns:cc="http://creativecommons.org/ns#"
   xmlns:rdf="http://www.w3.org/1999/02/22-rdf-syntax-ns#"
   xmlns:svg="http://www.w3.org/2000/svg"
   xmlns="http://www.w3.org/2000/svg"
   xmlns:sodipodi="http://sodipodi.sourceforge.net/DTD/sodipodi-0.dtd"
   xmlns:inkscape="http://www.inkscape.org/namespaces/inkscape"
   viewBox="0 0 210 297"
   version="1.1"
   id="svg4"
   sodipodi:docname="xing.svg"
   inkscape:version="0.92.2 (5c3e80d, 2017-08-06)">
  <metadata
     id="metadata10">
    <rdf:RDF>
      <cc:Work
         rdf:about="">
        <dc:format>image/svg+xml</dc:format>
        <dc:type
           rdf:resource="http://purl.org/dc/dcmitype/StillImage" />
      </cc:Work>
    </rdf:RDF>
  </metadata>
  <defs
     id="defs8" />
  <sodipodi:namedview
     pagecolor="#ffffff"
     bordercolor="#666666"
     borderopacity="1"
     objecttolerance="10"
     gridtolerance="10"
     guidetolerance="10"
     inkscape:pageopacity="0"
     inkscape:pageshadow="2"
     inkscape:window-width="1920"
     inkscape:window-height="1017"
     id="namedview6"
     showgrid="false"
     inkscape:zoom="0.79461279"
     inkscape:cx="105"
     inkscape:cy="148.5"
     inkscape:window-x="-8"
     inkscape:window-y="-8"
     inkscape:window-maximized="1"
     inkscape:current-layer="svg4" />
  <path
     style="fill:#ffffff;stroke-width:1.23281777"
     inkscape:connector-curvature="0"
     d="m 19.379263,73.260327 c -2.140171,0 -3.941318,0.752019 -4.849905,2.222771 -0.936941,1.517599 -0.795167,3.474081 0.204648,5.453986 l 24.043645,41.621166 c 0.04068,0.0789 0.04068,0.12944 0,0.20218 L 0.99425103,189.43615 c -0.98502142,1.96264 -0.93694152,3.93392 0,5.45522 0.90735387,1.46335 2.50631857,2.42372 4.64895587,2.42372 H 41.202604 c 5.31591,0 7.881404,-3.5875 9.698577,-6.8668 0,0 36.951248,-65.35167 38.389947,-67.88881 C 89.145655,122.32524 64.844351,79.928639 64.844351,79.928639 63.070326,76.776324 60.39881,73.259095 54.944824,73.259095 H 19.379263 Z"
     id="path10" />
  <path
     style="fill:#ffffff;stroke-width:1.23281777"
     inkscape:connector-curvature="0"
     d="m 168.77212,24.565258 c -5.31221,0 -7.61388,3.345867 -9.52105,6.773101 0,0 -76.607296,135.856521 -79.132107,140.316861 0.129446,0.24163 50.525807,92.6968 50.525807,92.6968 1.76539,3.15355 4.48869,6.7731 9.93651,6.7731 h 35.51748 c 2.14264,0 3.81681,-0.80626 4.71923,-2.27208 0.94927,-1.51637 0.92215,-3.52216 -0.0727,-5.49591 l -50.1313,-91.59219 a 0.20588057,0.20588057 0 0 1 0,-0.23301 l 78.7314,-139.209783 c 0.98995,-1.965111 1.01091,-3.969673 0.0752,-5.488505 -0.90735,-1.464587 -2.58645,-2.272083 -4.72909,-2.272083 h -35.92307 v 0.0025 h 0.004 z"
     id="path12" />
</svg>
